<?xml version="1.0" encoding="UTF-8"?>
<!DOCTYPE svg PUBLIC "-//W3C//DTD SVG 1.1//EN" "http://www.w3.org/Graphics/SVG/1.1/DTD/svg11.dtd">
<!-- Creator: CorelDRAW 2020 (64-Bit) -->
<svg xmlns="http://www.w3.org/2000/svg" xml:space="preserve" width="28.2186mm" height="28.2186mm" version="1.1" style="shape-rendering:geometricPrecision; text-rendering:geometricPrecision; image-rendering:optimizeQuality; fill-rule:evenodd; clip-rule:evenodd"
viewBox="0 0 1064.34 1064.34"
 xmlns:xlink="http://www.w3.org/1999/xlink"
 xmlns:xodm="http://www.corel.com/coreldraw/odm/2003">
 <defs>
  <style type="text/css">
   <![CDATA[
    .fil0 {fill:black}
   ]]>
  </style>
 </defs>
 <g id="Layer_x0020_1">
  <metadata id="CorelCorpID_0Corel-Layer"/>
  <path class="fil0" d="M372.52 851.47c0,-134.41 212.87,-134.41 212.87,0 0,134.41 -212.87,134.41 -212.87,0zm-266.09 -239.48c0,-11.62 17.6,-45.72 26.29,-54.55 99.4,-101.16 204.98,129.98 53.55,129.98 -11.62,0 -41.25,-8.36 -53.55,-20.88 -8.68,-8.83 -26.29,-42.93 -26.29,-54.55zm691.83 -106.44c0,-85.16 155.25,-114.16 155.25,0 0,114.17 -155.25,85.16 -155.25,0zm-638.61 -159.65c0,-85.16 155.25,-114.16 155.25,0 0,114.17 -155.25,85.16 -155.25,0zm478.95 -106.43c0,-85.16 155.25,-114.17 155.25,0 0,114.16 -155.25,85.16 -155.25,0zm-266.09 -53.22c0,-85.16 155.25,-114.16 155.25,0 0,114.17 -155.25,85.16 -155.25,0zm-372.52 306l0 79.83c0,247.79 258.36,492.26 505.56,492.26l186.26 0 0 -372.52 372.52 0 0 -186.26c0,-247.2 -244.47,-505.56 -492.26,-505.56l-79.83 0c-245.43,0 -492.26,246.82 -492.26,492.26z"/>
 </g>
</svg>
