<?xml version="1.0" encoding="UTF-8"?>
<!DOCTYPE svg PUBLIC "-//W3C//DTD SVG 1.1//EN" "http://www.w3.org/Graphics/SVG/1.1/DTD/svg11.dtd">
<!-- Creator: CorelDRAW 2020 (64-Bit) -->
<svg xmlns="http://www.w3.org/2000/svg" xml:space="preserve" width="28.2186mm" height="22.575mm" version="1.1" style="shape-rendering:geometricPrecision; text-rendering:geometricPrecision; image-rendering:optimizeQuality; fill-rule:evenodd; clip-rule:evenodd"
viewBox="0 0 606.3 485.04"
 xmlns:xlink="http://www.w3.org/1999/xlink"
 xmlns:xodm="http://www.corel.com/coreldraw/odm/2003">
 <defs>
  <style type="text/css">
   <![CDATA[
    .fil0 {fill:black}
   ]]>
  </style>
 </defs>
 <g id="Layer_x0020_1">
  <metadata id="CorelCorpID_0Corel-Layer"/>
  <g id="_1780484886016">
   <path class="fil0" d="M-0 485.04l606.3 0 0 -371.36c-47.36,25.06 -284.63,181.89 -303.15,181.89 -14.68,0 -131.91,-78.59 -151.93,-90.59 -51.69,-30.95 -97.45,-62.85 -151.22,-91.3l0 371.36z"/>
   <path class="fil0" d="M-0 60.63c27.22,6.34 122.53,70.27 153.05,89.48 188.05,118.35 115.84,112.18 301.32,1.11 23.6,-14.13 49.54,-30.37 74.66,-46.6 21.85,-14.11 52.32,-37.33 77.27,-43.99l0 -60.63 -606.3 0 0 60.63z"/>
  </g>
 </g>
</svg>
