<?xml version="1.0" encoding="UTF-8"?>
<!DOCTYPE svg PUBLIC "-//W3C//DTD SVG 1.1//EN" "http://www.w3.org/Graphics/SVG/1.1/DTD/svg11.dtd">
<!-- Creator: CorelDRAW 2020 (64-Bit) -->
<svg xmlns="http://www.w3.org/2000/svg" xml:space="preserve" width="23.6332mm" height="31.2758mm" version="1.1" style="shape-rendering:geometricPrecision; text-rendering:geometricPrecision; image-rendering:optimizeQuality; fill-rule:evenodd; clip-rule:evenodd"
viewBox="0 0 1271.51 1682.7"
 xmlns:xlink="http://www.w3.org/1999/xlink"
 xmlns:xodm="http://www.corel.com/coreldraw/odm/2003">
 <defs>
  <style type="text/css">
   <![CDATA[
    .fil0 {fill:black}
   ]]>
  </style>
 </defs>
 <g id="Layer_x0020_1">
  <metadata id="CorelCorpID_0Corel-Layer"/>
  <path class="fil0" d="M645.25 685.36l113.87 0 0 872.98 -113.87 0 0 -872.98zm-227.73 455.47l113.87 0 0 417.51c-91.93,-24.55 -21.94,-32.39 -113.87,-56.93l0 -360.58zm455.47 398.53l0 -1157.64 113.87 0 0 986.84c0,46.97 -19.12,41.65 -47.49,85.36 -39.04,60.14 -14.12,47.15 -66.38,85.44zm-227.73 -1290.49c-98.27,-22.9 -64.29,-6.47 -56.93,-94.89 -58.9,-13.72 -54.97,-24.23 -113.87,-37.96 -18.94,81.31 -41.63,124.99 -75.91,189.78 141.34,32.93 21.85,29.16 154.72,13.77 32.38,-3.75 -0.28,-7.45 54.03,5.21 -42.65,80.61 -130.84,336.37 -189.78,379.56 -86.72,-82.26 25.93,-48.83 -132.85,-132.85 -29.26,55.31 -69.72,115.45 -75.91,189.78 22.43,10.76 31.45,21.52 67.79,25.32 89,9.32 166.38,-76.37 92.75,74.95 -34.5,70.89 -107.13,212.94 -122.58,279.28l-75.91 0 21.31 -75.17c-61.23,-14.46 -57.29,-24.97 -116.19,-38.69 -24.01,45.38 -63.21,135.27 -75.91,189.78 68.02,15.84 47.18,31.29 105.15,20.83 4.87,-0.88 19.14,-7.24 23.87,-8.03 30.81,-5.13 8.29,-28.91 42.67,3.9 31.12,29.7 -9.74,91.84 -57.83,192.06 105.51,55.83 274.56,208.8 319.46,230.9 97.21,47.85 401.27,15.82 534.54,15.82 34.24,-146.95 155.09,-269.04 303.65,-303.65 0,-385.06 -111.07,-516.94 -137.38,-851.47 -6.49,-82.49 -14.73,-37.86 25.57,-112.83 161,-299.48 -220.96,-529.75 -421.69,-328.31 -49.64,49.82 -61.59,107.94 -92.77,172.92z"/>
 </g>
</svg>
