<?xml version="1.0" encoding="UTF-8"?>
<!DOCTYPE svg PUBLIC "-//W3C//DTD SVG 1.1//EN" "http://www.w3.org/Graphics/SVG/1.1/DTD/svg11.dtd">
<!-- Creator: CorelDRAW 2020 (64-Bit) -->
<svg xmlns="http://www.w3.org/2000/svg" xml:space="preserve" width="32.4192mm" height="32.4515mm" version="1.1" style="shape-rendering:geometricPrecision; text-rendering:geometricPrecision; image-rendering:optimizeQuality; fill-rule:evenodd; clip-rule:evenodd"
viewBox="0 0 765.6 766.36"
 xmlns:xlink="http://www.w3.org/1999/xlink"
 xmlns:xodm="http://www.corel.com/coreldraw/odm/2003">
 <defs>
  <style type="text/css">
   <![CDATA[
    .fil0 {fill:black}
   ]]>
  </style>
 </defs>
 <g id="Layer_x0020_1">
  <metadata id="CorelCorpID_0Corel-Layer"/>
  <path class="fil0" d="M174.17 491.47c0.43,-23.35 20.49,-13.75 30.72,-7.26 0,0 82.9,74.76 81.81,91.9 -2.67,41.76 -44.28,-11.73 -56.34,-24.14 -9.53,-9.81 -56.34,-52.4 -56.19,-60.49zm500.39 -491.47l3.31 0 87.73 91.63c-23.92,16.02 -34.33,31.39 -55.64,52.65 -41.5,41.39 -23.29,11.23 -75.2,24.76 -37.11,9.68 -75.42,73.88 -110.73,97.52 38.53,57.54 149.98,146.06 3.67,253.57 -67.25,49.42 -38.05,22.05 -70.28,96.32 -26.08,60.09 -91.11,149.9 -174.97,149.9 -189.94,0 -455.38,-327.51 -127.47,-460.67 77.53,-31.48 47.2,-10.2 93.99,-72.61 100.63,-134.23 183.3,-36.22 250.06,8.49 23.64,-35.31 87.84,-73.62 97.52,-110.73 14.81,-56.82 -17.99,-34.02 29.1,-79.19 18.77,-18.01 33.16,-29.6 48.9,-51.65zm-375.44 399.84c0,-84.16 133.28,-84.16 133.28,0 0,84.16 -133.28,84.16 -133.28,0z"/>
 </g>
</svg>
