<?xml version="1.0" encoding="UTF-8"?>
<!DOCTYPE svg PUBLIC "-//W3C//DTD SVG 1.1//EN" "http://www.w3.org/Graphics/SVG/1.1/DTD/svg11.dtd">
<!-- Creator: CorelDRAW 2020 (64-Bit) -->
<svg xmlns="http://www.w3.org/2000/svg" xml:space="preserve" width="25.3968mm" height="25.3968mm" version="1.1" style="shape-rendering:geometricPrecision; text-rendering:geometricPrecision; image-rendering:optimizeQuality; fill-rule:evenodd; clip-rule:evenodd"
viewBox="0 0 1533.71 1533.71"
 xmlns:xlink="http://www.w3.org/1999/xlink"
 xmlns:xodm="http://www.corel.com/coreldraw/odm/2003">
 <defs>
  <style type="text/css">
   <![CDATA[
    .fil0 {fill:black}
   ]]>
  </style>
 </defs>
 <g id="Layer_x0020_1">
  <metadata id="CorelCorpID_0Corel-Layer"/>
  <g id="_1780433504400">
   <polygon class="fil0" points="596.44,937.27 937.27,937.27 937.27,596.44 596.44,596.44 "/>
   <polygon class="fil0" points="596.44,340.82 937.27,340.82 937.27,0 596.44,0 "/>
   <polygon class="fil0" points="-0,937.27 340.82,937.27 340.82,596.44 -0,596.44 "/>
   <polygon class="fil0" points="1192.89,937.27 1533.71,937.27 1533.71,596.44 1192.89,596.44 "/>
   <polygon class="fil0" points="596.44,1533.71 937.27,1533.71 937.27,1192.89 596.44,1192.89 "/>
   <polygon class="fil0" points="-0,340.82 340.82,340.82 340.82,0 -0,0 "/>
   <polygon class="fil0" points="1192.89,340.82 1533.71,340.82 1533.71,0 1192.89,0 "/>
   <polygon class="fil0" points="-0,1533.71 340.82,1533.71 340.82,1192.89 -0,1192.89 "/>
   <polygon class="fil0" points="1192.89,1533.71 1533.71,1533.71 1533.71,1192.89 1192.89,1192.89 "/>
  </g>
 </g>
</svg>
