<?xml version="1.0" encoding="UTF-8"?>
<!DOCTYPE svg PUBLIC "-//W3C//DTD SVG 1.1//EN" "http://www.w3.org/Graphics/SVG/1.1/DTD/svg11.dtd">
<!-- Creator: CorelDRAW 2020 (64-Bit) -->
<svg xmlns="http://www.w3.org/2000/svg" xml:space="preserve" width="28.2202mm" height="28.4351mm" version="1.1" style="shape-rendering:geometricPrecision; text-rendering:geometricPrecision; image-rendering:optimizeQuality; fill-rule:evenodd; clip-rule:evenodd"
viewBox="0 0 1391.28 1401.87"
 xmlns:xlink="http://www.w3.org/1999/xlink"
 xmlns:xodm="http://www.corel.com/coreldraw/odm/2003">
 <defs>
  <style type="text/css">
   <![CDATA[
    .fil0 {fill:black}
   ]]>
  </style>
 </defs>
 <g id="Layer_x0020_1">
  <metadata id="CorelCorpID_0Corel-Layer"/>
  <path class="fil0" d="M139.15 1118.7l556.48 0 0 139.12 -452.14 0c-46.96,0 -47.95,-8.31 -86.95,-17.39 -11.92,-51.16 -17.39,-53.07 -17.39,-121.73zm1026.01 -973.84c83.85,19.54 86.95,38.29 86.95,139.12l-139.12 0c0,-89.16 7.41,-96.67 52.17,-139.12zm-956.45 52.17l0 782.55 -208.68 0c0,498.81 -18.09,417.36 921.67,417.36 101.61,0 191.29,-89.68 191.29,-191.29l0 -782.55 278.24 0c0,-504.41 23.22,-417.36 -991.23,-417.36 -101.61,0 -191.29,89.68 -191.29,191.29z"/>
 </g>
</svg>
