<?xml version="1.0" encoding="UTF-8"?>
<!DOCTYPE svg PUBLIC "-//W3C//DTD SVG 1.1//EN" "http://www.w3.org/Graphics/SVG/1.1/DTD/svg11.dtd">
<!-- Creator: CorelDRAW 2020 (64-Bit) -->
<svg xmlns="http://www.w3.org/2000/svg" xml:space="preserve" width="33.8624mm" height="32.4514mm" version="1.1" style="shape-rendering:geometricPrecision; text-rendering:geometricPrecision; image-rendering:optimizeQuality; fill-rule:evenodd; clip-rule:evenodd"
viewBox="0 0 117197.68 112314.22"
 xmlns:xlink="http://www.w3.org/1999/xlink"
 xmlns:xodm="http://www.corel.com/coreldraw/odm/2003">
 <defs>
  <style type="text/css">
   <![CDATA[
    .fil0 {fill:black}
   ]]>
  </style>
 </defs>
 <g id="Layer_x0020_1">
  <metadata id="CorelCorpID_0Corel-Layer"/>
  <g id="_1997327433600">
   <path class="fil0" d="M39066.01 62261.27c3454.08,3641.66 7237.29,3841.02 13584.07,5948.76 20110.82,6678.69 13696.9,2161.74 19528.68,19537.33 2529.99,7538.74 2270.41,10881.38 5952.92,13579.57 7575.09,-5072.44 7064.24,-23735.52 12088.23,-28198.48 2657.01,-2360.05 10572.66,-3634.05 14626.87,-4906.31 11193.21,-3512.57 11859.8,-2499.53 12350.92,-8402.61 -9510.82,-2215.73 -17858.75,-6164.73 -28078.73,-8545.55 -652.05,-7836.39 -6605.31,-19750.18 -8545.55,-28078.73 -5883.7,489.73 -4206.84,898.47 -7786.21,11746.63 -1239.73,3757.61 -3630.59,13098.49 -5525.83,15228.04 -4227.26,4749.53 -23664.92,5907.23 -28195.36,12091.34z"/>
   <path class="fil0" d="M2441.73 25636.99l0 4883.12c4038.98,336.06 16764.38,4505.18 18879.74,6756.91 1890.74,2012.92 5959.84,15457.85 6757.25,18880.09l4883.12 0c299.03,-3591.82 4549.83,-17408.13 6446.8,-19190.19 1701.08,-1598.29 16133.79,-5734.87 19190.19,-6446.8l0 -4883.12c-19922.19,-4641.54 -20995.8,-5715.15 -25636.99,-25636.99l-4883.12 0c-4641.54,19921.85 -5715.15,20995.45 -25636.99,25636.99z"/>
   <path class="fil0" d="M-0 89118.96c431.93,5190.46 604.29,4393.04 4934.34,6052.94 2729,1046.61 6476.22,2223.34 9715.37,2492.61 290.38,3488.34 1311.72,6264.41 2188.04,8799.59 1473,4259.8 1205.12,5421.31 6357.51,5850.12 5921.42,-25415.49 11923.14,-10367.07 19533.18,-20753.53 -4415.54,-6593.89 -10172.56,-3532.64 -14307.42,-7667.49 -4134.85,-4134.85 -1073.26,-9891.53 -7667.15,-14307.07 -9727.13,7126.54 5378.74,13444.59 -20753.87,19532.83z"/>
  </g>
 </g>
</svg>
