<?xml version="1.0" encoding="UTF-8"?>
<!DOCTYPE svg PUBLIC "-//W3C//DTD SVG 1.1//EN" "http://www.w3.org/Graphics/SVG/1.1/DTD/svg11.dtd">
<!-- Creator: CorelDRAW 2020 (64-Bit) -->
<svg xmlns="http://www.w3.org/2000/svg" xml:space="preserve" width="80.0001mm" height="130mm" version="1.1" style="shape-rendering:geometricPrecision; text-rendering:geometricPrecision; image-rendering:optimizeQuality; fill-rule:evenodd; clip-rule:evenodd"
viewBox="0 0 6124.83 9952.84"
 xmlns:xlink="http://www.w3.org/1999/xlink"
 xmlns:xodm="http://www.corel.com/coreldraw/odm/2003">
 <defs>
  <style type="text/css">
   <![CDATA[
    .fil1 {fill:#404040;fill-rule:nonzero}
    .fil0 {fill:#5C5C5C;fill-rule:nonzero}
    .fil2 {fill:gray;fill-rule:nonzero}
    .fil3 {fill:#A0A0A0;fill-rule:nonzero}
    .fil4 {fill:silver;fill-rule:nonzero}
   ]]>
  </style>
 </defs>
 <g id="Layer_x0020_1">
  <metadata id="CorelCorpID_0Corel-Layer"/>
  <g id="_2095096340672">
   <path class="fil0" d="M3647.32 8195.04l-481.13 1589.95c0,0 1011.29,-15.69 1305.51,-50.38 294.22,-34.69 839.31,-256.87 927.44,-598.81 88.12,-341.94 -73.91,-1694.01 -73.91,-1694.01 0,0 442.04,-137.11 648.14,-410.49 206.1,-273.39 147.11,-718.57 132.19,-1026.65 -14.93,-308.08 -25.59,-2860.24 -58.99,-3165.84 -50.45,-455.92 -191.17,-873.02 -427.11,-1180.28 -235.94,-307.25 -509.55,-452.62 -607.63,-509.61 -125.08,-73.51 -525.18,-188.32 -525.18,-188.32l-839.31 7234.45 0 -0.01z"/>
   <path class="fil1" d="M933.25 1822.88c-11.37,27.26 -245.18,244.48 -250.87,467.48 -5.68,223.83 29.14,403.89 52.6,555.86 22.03,143.72 68.22,403.89 68.22,403.89l3723.22 -23.95c0,0 144.27,-155.28 122.24,-433.62 -34.83,-447.66 -198.28,-671.49 -343.97,-874.68 -145.69,-203.18 -2023.99,-535.21 -2023.99,-535.21 0,0 -1341.76,427.01 -1347.44,440.23l-0.01 0.01z"/>
   <path class="fil2" d="M4635.16 403.09c0,0 138.58,52.03 324.07,332.85 154.92,233.74 103.04,545.12 15.63,854.85 -70.36,250.26 -230.97,612.86 -450.56,557.51 -178.39,-44.6 -880.53,-301.47 -1444.81,-402.23 -722.75,-128.85 -1194.64,-102.42 -1682.16,86.72 -463.37,179.23 -714.23,458.4 -714.23,458.4 0,0 -19.9,-322.12 42.64,-502.17 62.53,-180.06 727.73,-557.51 727.73,-557.51l3181.68 -828.41z"/>
   <path class="fil3" d="M4146.21 1545.37c262.24,30.56 449.15,-189.14 534.43,-540.17 85.28,-351.02 63.96,-506.3 24.87,-559.98 -38.38,-53.69 -899.71,-537.69 -1991.31,-429.5 -1091.6,108.19 -1370.89,500.52 -1532.92,683.88 -278.59,314.69 -473.31,868.9 -459.1,1106.77 0,4.95 162.03,-360.94 1210.28,-503.83 1191.8,-161.88 1904.6,207.32 2213.75,242.83l0 0z"/>
   <path class="fil2" d="M825.24 3435.13c0,0 -54.01,-242.83 -7.82,-314.69 46.2,-71.86 224.57,-251.91 495.34,-314.69 270.77,-62.77 549.35,18.17 549.35,18.17l1014.13 -404.71c0,0 69.65,117.28 123.65,251.91 54.01,134.62 123.66,422.88 123.66,422.88 0,0 73.2,-123.06 304.88,-204 232.38,-80.95 623.26,35.52 623.26,35.52l217.47 2165.62c0,0 -54.01,593.85 -38.38,1790.64 15.63,1196.8 7.82,1745.22 -38.38,2168.11 -19.9,180.88 -159.9,620.28 -766.11,728.49 -578.49,103.24 -1594.75,224.65 -2353.04,152.79 -759,-71.86 -970.07,-417.1 -1045.4,-584.77 -77.46,-173.45 31.27,-659.93 31.27,-659.93l394.42 -446.84c0,0 -201.12,-1619.68 -208.93,-1664.27 -7.82,-45.43 580.62,-3140.24 580.62,-3140.24l0.01 0z"/>
   <path class="fil3" d="M4566.22 3224.51c-95.94,-137.93 -508.13,-420.41 -847.12,-270.08 -353.92,157.75 -533.72,677.27 -417.87,1109.24 78.88,294.86 311.27,578.99 506.71,827.59 209.65,267.61 306.3,471.61 396.56,471.61 90.25,0 180.51,-938.27 248.74,-1272.78 68.22,-334.51 175.54,-775.56 113,-865.59z"/>
   <path class="fil0" d="M3222.34 2994.9c0,0 -56.14,33.04 -84.57,13.21 -28.43,-19.82 -71.06,-133.8 -71.06,-133.8 0,0 -830.07,1282.69 -874.85,1361.15 -45.48,78.47 -29.14,110.68 -6.39,143.71 22.74,33.04 460.52,-73.51 725.6,155.28 276.45,239.53 287.11,706.18 179.79,883.76 -107.31,176.75 -435.64,189.14 -650.98,4.13 -105.89,-90.85 -564.27,-369.2 -1140.63,-369.2 -240.21,0 -664.48,47.9 -664.48,47.9l-257.26 274.21 253.71 412.97 1019.82 422.89 150.66 -280.82c0,0 885.5,108.19 1183.28,50.38 297.77,-57.82 542.96,-335.33 491.07,-858.98 -47.61,-479.05 -332.59,-689.66 -471.17,-1060.51 -119.4,-320.47 2.13,-640.93 44.77,-760.69 34.82,-95.81 172.7,-305.61 172.7,-305.61l0 0.01z"/>
   <path class="fil0" d="M1901.9 6383.75l592.71 299c0,0 331.88,91.67 377.37,202.35 29.14,70.21 -4.26,197.4 -162.03,144.55 -90.97,-30.56 -513.82,-166.85 -638.9,-202.36 -153.51,-43.78 -983.58,-96.63 -1181.14,-37.16 -148.53,44.6 -342.55,222.18 -450.56,191.61 -103.76,-28.91 -95.23,-104.07 -96.66,-238.69 -0.71,-77.64 223.15,-248.61 223.15,-248.61l1173.32 -173.45 162.74 62.77 0 -0.01z"/>
   <path class="fil0" d="M744.93 7058.54c-70.36,188.32 410.77,415.45 650.98,423.71 539.4,18.99 843.57,-351.85 837.88,-385.71 -12.79,-67.73 -522.35,-76.81 -854.23,-81.77 -303.46,-4.13 -609.76,-23.96 -634.63,43.77z"/>
   <path class="fil3" d="M2116.52 5034.98c86.7,37.17 320.51,-28.91 537.28,-154.44 216.75,-126.37 330.46,-212.27 325.49,-269.26 -4.98,-56.99 -147.82,-194.92 -335.44,-218.05 -196.15,-23.95 -319.1,9.91 -364.57,62.78 -63.97,74.33 -310.57,516.22 -162.74,578.99l-0.01 -0.01z"/>
   <path class="fil1" d="M1543.73 5253.86c-130.06,20.65 -63.25,236.22 0,351.03 68.93,125.54 137.16,209.79 217.46,226.31 80.31,16.51 481.84,22.29 477.58,-132.15 -4.26,-154.45 -520.21,-472.45 -695.04,-445.19z"/>
   <path class="fil1" d="M997.21 5308.37c-73.2,-28.07 -230.97,128.85 -248.02,191.62 -17.06,65.25 102.34,285.78 284.97,235.39 128.64,-34.68 27.71,-402.23 -36.96,-427.01l0 -0.01z"/>
   <path class="fil3" d="M2876.95 2418.39c4.26,112.34 -802.35,1611.42 -897.58,1792.3 -95.23,180.89 -321.94,613.68 -388.73,682.23 -81.73,85.08 -356.05,173.45 -499.61,185.84 -358.88,32.21 -536.56,175.1 -579.19,275.04 -42.64,99.94 276.45,431.14 505.29,496.39 228.83,65.25 716.36,45.42 807.32,90.03 90.96,44.6 271.47,224.66 413.62,320.47 142.13,95.81 336.86,256.87 332.59,341.94 -4.26,85.07 -35.53,93.33 -99.5,74.33 -75.33,-22.29 -393,-133.8 -582.04,-159.4 -343.25,-46.26 -847.12,-66.91 -1134.94,18.99 -158.48,47.08 -446.3,214.74 -405.79,366.72 36.24,134.62 95.94,236.22 181.22,360.94 73.91,108.2 216.05,396.45 306.3,566.6 90.97,170.14 267.92,450.96 611.89,479.87 400.82,33.86 557.17,-199.05 743.36,-490.61 185.48,-290.73 293.51,-592.2 556.46,-556.68 262.95,35.52 319.1,416.27 366.71,687.18 47.61,270.92 194.02,1003.52 120.81,1173.67 -73.2,170.14 -194.01,185.83 -410.06,230.44 -216.05,45.42 -1191.09,205.66 -1778.1,110.68 -587.02,-94.98 -953.73,-315.5 -988.55,-544.3 -34.83,-228.78 47.61,-323.77 60.41,-764.82 12.79,-441.06 -29.84,-2496.83 138.58,-3340.12 168.42,-843.29 452.7,-1301.69 621.13,-1456.96 168.42,-155.28 516.66,-310.56 591.99,-263.47 75.34,47.08 -319.09,1018.39 -319.09,1018.39 0,0 249.44,-80.95 272.9,-148.67 23.45,-67.73 667.32,-1686.58 789.56,-1767.52 122.24,-80.95 245.18,-66.91 390.16,-13.22 145.69,56.99 272.9,233.75 272.9,233.75l-0.01 0z"/>
   <path class="fil4" d="M983.71 3455.78c-82.44,-63.6 -203.25,33.86 -255.14,161.88 -51.88,128.02 -11.37,242.83 40.51,270.08 51.88,27.26 155.64,-0.82 226.71,-128.02 63.25,-115.63 74.62,-237.05 -12.08,-303.94l0 0.01z"/>
   <path class="fil4" d="M2361.71 2138.4c-252.28,1.65 -376.65,151.15 -510.26,419.58 -145.69,293.2 -182.65,634.32 -391.58,1005.17 -208.94,370.85 -429.25,694.62 -522.35,796.2 -93.1,101.6 -296.35,391.5 -162.74,526.13 133.61,134.62 319.1,-74.34 447.01,-263.47 127.92,-189.14 394.42,-762.35 528.04,-1005.17 133.61,-242.83 650.26,-1032.44 736.97,-1214.14 53.29,-111.5 15.63,-265.13 -125.08,-264.31l0 0.01z"/>
   <path class="fil4" d="M901.99 5958.39c-87.42,-23.96 -168.43,-20.65 -232.39,74.34 -63.96,94.15 -76.75,220.52 11.37,256.04 115.84,47.08 203.25,0 272.9,-87.55 54.01,-66.9 70.36,-208.96 -51.88,-242.83z"/>
   <path class="fil4" d="M1064.73 8770.73c-162.74,20.65 -144.97,270.08 -110.15,370.85 34.82,100.77 133.61,161.88 249.45,121.42 115.84,-40.47 133.61,-189.14 98.79,-310.56 -34.83,-121.42 -88.13,-199.88 -238.08,-181.71l0 0z"/>
   <path class="fil4" d="M3945.8 3002.33c-171.27,6.61 -235.23,62.77 -293.51,193.27 -65.38,145.36 4.98,258.52 117.26,267.6 137.17,11.57 225.29,-33.86 308.44,-193.27 59.69,-113.98 14.92,-273.39 -132.19,-267.6l0 0z"/>
   <path class="fil4" d="M3622.45 3599.49c-78.18,-8.26 -112.29,33.87 -127.21,96.64 -14.92,62.77 24.16,113.98 78.18,119.76 54.01,5.78 98.07,-33.86 117.26,-85.07 19.9,-51.21 -14.21,-125.54 -68.22,-131.33z"/>
   <path class="fil4" d="M1306.36 560.84c0,0 169.14,-189.97 396.55,-294.86 319.81,-147.85 573.51,-185.83 573.51,-185.83 0,0 171.27,-20.65 215.33,42.12 56.14,79.29 -44.06,187.49 -44.06,187.49 0,0 147.1,-23.12 186.19,62.77 39.09,85.07 9.95,222.18 -166.3,227.97 -176.24,5.78 -122.24,-176.75 -122.24,-176.75 0,0 -117.26,68.55 -215.33,96.64 -98.07,28.07 -225.29,-5.79 -225.29,-5.79 0,0 -209.65,386.55 -455.54,307.25 -203.25,-64.42 -142.85,-260.99 -142.85,-260.99l0.01 -0.01z"/>
   <path class="fil4" d="M1074.68 1228.2c60.41,66.91 179.79,35.52 243.76,-78.47 64.67,-113.98 57.57,-232.08 0,-283.3 -57.57,-51.21 -166.3,-11.56 -226.7,78.47 -60.41,90.03 -88.84,204.83 -17.06,283.3z"/>
  </g>
 </g>
</svg>
